<?xml version="1.0" standalone="no"?>
<svg height="600" width="360" viewBox="0 0 360 600" xmlns="http://www.w3.org/2000/svg">
<title>Venus or female symbol (pink pseudo-3D version)</title>
<g transform="translate(2,591) scale(0.725,-0.725)" stroke="#000000" stroke-linejoin="round" fill="rgb(204,51,102)" stroke-width="4">
<path d="M413,701c40-39,62-92,62-148c0-104-77-193-180-208v-95h110l40-40v-60
h-150v-150h-60l-40,40l30,30v343c99,0,180,81,180,180c0,48-19,94-53,127l21,21
l40-40Z
M235,345c-45,7-86,27-118,60l-40,40l21,21c33-34,79-53,127-53l10-68Z"/>
<path d="M371,659c-28,28-66,44-106,44c-83,0-150-67-150-150c0-40,16-78,44-106
l-61,19c-34,33-53,79-53,127c0,99,81,180,180,180c48,0,94-19,127-53l19-61Z"/>
<path d="M85,150h150l-40,40h-150l40-40Z"/>
<path fill="none" d="M295,345l-40,40M445,150l-40,40M295,150l-40,40
M295,0l-40,40"/>
<path fill="rgb(255,127,153)" d="M435,593c0,116-94,210-210,210
c-116,0-210-94-210-210c0-104,77-193,180-208v-135h-150v-60h150v-150h60v150h150
v60h-150v135c103,15,180,104,180,208Z
M375,593c0-83-67-150-150-150c-83,0-150,67-150,150c0,83,67,150,150,150
c83,0,150-67,150-150Z"/></g></svg>
